<svg width="200" height="48" viewBox="0 0 200 48" fill="none" xmlns="http://www.w3.org/2000/svg">
<g clip-path="url(#clip0_41_6)">
<path d="M0 31.803V31.7551C0 25.3883 4.21001 21.9416 8.75875 21.9416C11.6622 21.9416 13.4527 23.2341 14.7593 24.7659V15.4311H20.2275V41.2813H14.7108V38.5527C13.4043 40.3239 11.5655 41.6165 8.71041 41.6165C4.25841 41.6643 0 38.1697 0 31.803ZM14.8077 31.803V31.7551C14.8077 28.5956 12.6784 26.4893 10.1621 26.4893C7.59742 26.4893 5.46818 28.5477 5.46818 31.7551V31.803C5.46818 34.9624 7.59742 37.0687 10.1621 37.0687C12.6784 37.0687 14.8077 34.9624 14.8077 31.803Z" fill="#3B3092"/>
<path d="M21.7275 35.8241V35.7762C21.7275 31.6114 24.9213 29.6966 29.4701 29.6966C31.4058 29.6966 32.8091 30.0317 34.1641 30.4625V30.1275C34.1641 27.8775 32.7607 26.6329 30.0508 26.6329C27.97 26.6329 26.5182 27.0159 24.7278 27.6382L23.3728 23.5213C25.5021 22.6596 27.5829 22.0852 30.8251 22.0852C33.7769 22.0852 35.9545 22.8511 37.3094 24.1915C38.7612 25.6276 39.3903 27.6861 39.3903 30.2711V41.2813H34.1641V39.2229C32.8575 40.659 31.0186 41.6165 28.3571 41.6165C24.7278 41.6643 21.7275 39.6058 21.7275 35.8241ZM34.2608 34.5794V33.622C33.3414 33.1911 32.1316 32.904 30.7767 32.904C28.4539 32.904 27.0021 33.8135 27.0021 35.5368V35.5847C27.0021 37.0208 28.212 37.8825 29.954 37.8825C32.5187 37.9304 34.2608 36.5421 34.2608 34.5794Z" fill="#3B3092"/>
<path d="M42.6806 35.9196V26.9199H40.4062V22.3242H42.6806V17.4414H48.1488V22.2764H52.6492V26.872H48.1488V35.01C48.1488 36.2546 48.6811 36.8769 49.8909 36.8769C50.9071 36.8769 51.7781 36.6376 52.6008 36.2067V40.5151C51.4394 41.1853 50.1328 41.6162 48.294 41.6162C44.9066 41.6162 42.6806 40.2758 42.6806 35.9196Z" fill="#3B3092"/>
<path d="M53.3271 35.8239V35.776C53.3271 31.6112 56.521 29.6964 61.0697 29.6964C63.0054 29.6964 64.4087 30.0315 65.7637 30.4623V30.1273C65.7637 27.8773 64.3603 26.6327 61.6504 26.6327C59.5696 26.6327 58.1179 27.0157 56.3274 27.638L54.9725 23.5211C57.1017 22.6115 59.1825 21.9893 62.4247 21.9893C65.3765 21.9893 67.5541 22.7552 68.9091 24.0955C70.3608 25.5317 70.9899 27.5901 70.9899 30.1752V41.1854H65.7153V39.127C64.4087 40.5631 62.5699 41.5205 59.9083 41.5205C56.3274 41.6641 53.3271 39.6056 53.3271 35.8239ZM65.8604 34.5792V33.6218C64.941 33.191 63.7312 32.9038 62.3763 32.9038C60.0535 32.9038 58.6018 33.8133 58.6018 35.5366V35.5845C58.6018 37.0206 59.8116 37.8823 61.5536 37.8823C64.1184 37.9302 65.8604 36.542 65.8604 34.5792Z" fill="#3B3092"/>
<path d="M73.5547 15.4312H79.0225V29.2179L85.4107 22.3245H91.9435L84.5878 29.7445L92.1369 41.2813H85.8941L80.8616 33.5263L78.9745 35.489V41.2813H73.5547V15.4312Z" fill="#3B3092"/>
<path d="M92.1365 34.5794V22.2767H97.6044V32.8561C97.6044 35.3932 98.8148 36.7336 100.895 36.7336C102.976 36.7336 104.283 35.4411 104.283 32.8561V22.2767H109.751V41.2813H104.283V38.6006C103.024 40.1803 101.427 41.6643 98.6694 41.6643C94.5078 41.6643 92.1365 38.9356 92.1365 34.5794Z" fill="#3B3092"/>
<path d="M112.702 15.4312H118.17V41.2813H112.702V15.4312Z" fill="#3B3092"/>
<path d="M121.993 35.9199V26.9201H119.72V22.3245H121.993V17.4417H127.462V22.2767H131.962V26.8722H127.462V35.0103C127.462 36.2549 127.994 36.8772 129.204 36.8772C130.22 36.8772 131.092 36.6379 131.914 36.207V40.5154C130.753 41.1856 129.446 41.6165 127.607 41.6165C124.268 41.6165 121.993 40.2761 121.993 35.9199Z" fill="#3B3092"/>
<path d="M133.656 34.5794V22.2767H139.124V32.8561C139.124 35.3932 140.334 36.7336 142.415 36.7336C144.495 36.7336 145.802 35.4411 145.802 32.8561V22.2767H151.27V41.2813H145.802V38.6006C144.544 40.1803 142.947 41.6643 140.189 41.6643C136.075 41.6643 133.656 38.9356 133.656 34.5794Z" fill="#3B3092"/>
<path d="M153.98 22.2768H159.449V26.1065C160.562 23.4735 162.352 21.798 165.594 21.9417V27.5904H165.304C161.675 27.5904 159.449 29.7446 159.449 34.2923V41.3293H153.98V22.2768Z" fill="#3B3092"/>
<path d="M165.352 31.8985V31.8506C165.352 26.4413 169.271 21.9414 174.836 21.9414C181.272 21.9414 184.176 26.8721 184.176 32.2337C184.176 32.6644 184.127 33.1432 184.127 33.6697H170.771C171.304 36.1111 173.046 37.4037 175.465 37.4037C177.304 37.4037 178.611 36.8292 180.111 35.441L183.208 38.1696C181.417 40.3717 178.853 41.712 175.369 41.712C169.61 41.712 165.352 37.6909 165.352 31.8985ZM178.901 30.3188C178.563 27.9252 177.159 26.2976 174.836 26.2976C172.562 26.2976 171.11 27.8774 170.675 30.3188H178.901Z" fill="#3B3092"/>
<path d="M196.855 14.0908L200 10.9792V6.28782L192.112 14.0908L200 21.9415V17.2024L196.855 14.0908Z" fill="#FCAF17"/>
<path d="M187.322 14.091L184.177 17.2026V21.9418L192.113 14.091L184.177 6.28809V10.9794L187.322 14.091Z" fill="#FCAF17"/>
</g>
<defs>
<clipPath id="clip0_41_6">
<rect width="200" height="48" fill="white"/>
</clipPath>
</defs>
</svg>
